<svg xmlns="http://www.w3.org/2000/svg" viewBox="0 0 928 864"><rect x="0" y="0" width="928" height="864" r="0" rx="0" ry="0" fill="#FAFAFA" stroke="#FAFAFA"></rect><path d=" M 0 32 H 928 M 0 64 H 928 M 0 96 H 928 M 0 128 H 928 M 0 160 H 928 M 0 192 H 928 M 0 224 H 928 M 0 256 H 928 M 0 288 H 928 M 0 320 H 928 M 0 352 H 928 M 0 384 H 928 M 0 416 H 928 M 0 448 H 928 M 0 480 H 928 M 0 512 H 928 M 0 544 H 928 M 0 576 H 928 M 0 608 H 928 M 0 640 H 928 M 0 672 H 928 M 0 704 H 928 M 0 736 H 928 M 0 768 H 928 M 0 800 H 928 M 0 832 H 928 M 32 0 V 864 M 64 0 V 864 M 96 0 V 864 M 128 0 V 864 M 160 0 V 864 M 192 0 V 864 M 224 0 V 864 M 256 0 V 864 M 288 0 V 864 M 320 0 V 864 M 352 0 V 864 M 384 0 V 864 M 416 0 V 864 M 448 0 V 864 M 480 0 V 864 M 512 0 V 864 M 544 0 V 864 M 576 0 V 864 M 608 0 V 864 M 640 0 V 864 M 672 0 V 864 M 704 0 V 864 M 736 0 V 864 M 768 0 V 864 M 800 0 V 864 M 832 0 V 864 M 864 0 V 864 M 896 0 V 864" stroke-dasharray="4" stroke-dashoffset="6" stroke="#CCCCCC"/><polygon points="736,816 712,808 704,800 696,792 688,728 688,688 680,680 672,680 648,672 640,664 640,600 632,592 528,592 512,584 504,576 504,440 512,424 520,416 616,416 624,408 624,280 616,272 552,272 544,264 536,256 528,248 528,240 520,232 296,232 288,224 288,176 280,168 64,168 40,160 32,152 32,40 40,32 232,32 240,40 240,40 248,48 400,48 408,40 416,32 560,32 568,40 568,40 576,48 728,48 736,40 752,32 840,32 856,40 864,48 872,56 872,224 864,248 856,256 848,264 840,288 832,296 824,304 712,304 704,312 704,440 704,440 696,448 696,592 704,600 720,608 728,616 736,632 744,640 744,664 752,672 848,672 856,680 872,688 880,696 880,704 872,800 864,808 856,816 " style="fill:#E0E0E0;fill-rule:evenodd" />
<polygon points="568,72 560,64 552,56 416,56 408,64 408,64 400,72 248,72 240,64 224,56 56,56 56,136 64,144 304,152 312,208 544,208 552,216 552,240 560,248 640,256 640,256 648,264 648,424 640,432 528,440 528,568 656,576 664,648 680,656 704,664 712,720 720,784 744,792 848,792 848,704 840,696 736,688 728,680 720,648 712,632 704,624 696,616 680,608 680,608 672,600 672,440 680,432 688,288 816,280 824,248 840,240 848,224 848,64 832,56 752,56 744,64 744,64 736,72 " style="fill:#61B081;fill-rule:evenodd" />
<polygon points="56,136 56,64 64,56 168,56 176,64 184,72 192,80 200,88 208,96 216,104 224,112 232,120 240,128 248,136 248.0,150.13333333333333 64,144 " style="fill:#C3FECE;fill-rule:evenodd" />
<polygon points="800,96 792,88 784,80 768,72 768,64 792,56 824,56 824,72 832,80 848,80 848,88 824,96 816,104 808,104 " style="fill:#C3FECE;fill-rule:evenodd" />
<polygon points="728,80 728,72 752,72 752,88 744,88 " style="fill:#C3FECE;fill-rule:evenodd" />
<polygon points="705.1428571428571,672.0 704,664 680,656 664,648 656,576 528,568 528,464 528,464 536,456 536,456 528,448 528,440 568.0,437.14285714285717 568.0,437.14285714285717 576,448 576,448 584.0,436.0 640,432 640,432 648,424 648,256 640.0,256.0 584.0,250.4 584,240 576,232 552,232 552,216 544,208 312,208 304,152 288.0,151.46666666666667 272,136 264,128 256,120 248,112 240,104 224,96 216,88 208,80 192,72 184,64 184,56 224,56 232.0,60.0 232.0,60.0 240,72 400,72 408,64 432,56 552,56 560,64 712,72 720,80 728,88 728,112 736,120 744,120 744,120 752,128 760,128 768,120 768,112 760,104 760,96 792,96 800,104 816,112 824,120 832,128 840,136 848,144 848,224 840,240 824,248 816,280 688,288 680,432 672,536 672,536 664,544 664,544 672,552 680,608 696,616 704,624 712,632 720,648 726.0,672.0 " style="fill:#C3FECE;fill-rule:evenodd" />
<polygon points="768,784 752,776 744,768 736,760 716.0,752.0 712,720 708.5714285714286,696.0 728.0,680.0 736,688 840,696 848,704 848,792 776,792 " style="fill:#C3FECE;fill-rule:evenodd" />
<polygon points="717.0,760.0 728,760 736,768 736.0,789.3333333333334 720,784 " style="fill:#C3FECE;fill-rule:evenodd" />
<polygon points="496,112 488,104 480,104 472,112 472,120 480,128 488,128 496,120 " style="fill:#61B081;fill-rule:evenodd" />
<circle stroke="#888888" stroke-width="0.5" fill="#FFF601" cx="184" cy="72" r="15"/></svg>